<svg xmlns="http://www.w3.org/2000/svg" width="821.1407470703125" height="437.41046142578125" viewBox="-433.1679382324219 -100.72472381591797 821.1407470703125 437.41046142578125"><title>Neo4j Graph Visualization</title><desc>Created using Neo4j (http://www.neo4j.com/)</desc><g class="layer relationships"><g class="relationship" transform="translate(200.7528560804769 299.25443541867855) rotate(298.98467304692207)"><path class="outline" fill="#8DCC93" stroke="none" d="M 25 1 L 156.25616217842298 1 L 156.25616217842298 -1 L 25 -1 Z M 162.25616217842298 1 L 293.51232435684597 1 L 293.51232435684597 4 L 301.51232435684597 0 L 293.51232435684597 -4 L 293.51232435684597 -1 L 162.25616217842298 -1 Z"/><text text-anchor="middle" pointer-events="none" font-size="8px" fill="#000000" x="159.25616217842298" y="3" font-family="sans-serif"/></g><g class="relationship" transform="translate(90.1955828849627 66.80836023910045) rotate(180.90754066043337)"><path class="outline" fill="#569480" stroke="none" d="M 25 1 L 73.74390332229827 1 L 73.74390332229827 -1 L 25 -1 Z M 129.38452832229825 1 L 178.12843164459653 1 L 178.12843164459653 4 L 186.12843164459653 0 L 178.12843164459653 -4 L 178.12843164459653 -1 L 129.38452832229825 -1 Z"/><text text-anchor="middle" pointer-events="none" font-size="8px" fill="#000000" x="101.56421582229827" y="3" transform="rotate(180 101.56421582229827 0)" font-family="sans-serif">LOCATED_IN</text></g><g class="relationship" transform="translate(-215.657706636432 276.86900344076764) rotate(293.9411450936482)"><path class="outline" fill="#569480" stroke="none" d="M 25 1 L 84.92661203904653 1 L 84.92661203904653 -1 L 25 -1 Z M 140.56723703904652 1 L 200.49384907809306 1 L 200.49384907809306 4 L 208.49384907809306 0 L 200.49384907809306 -4 L 200.49384907809306 -1 L 140.56723703904652 -1 Z"/><text text-anchor="middle" pointer-events="none" font-size="8px" fill="#000000" x="112.74692453904653" y="3" font-family="sans-serif">LOCATED_IN</text></g><g class="relationship" transform="translate(-404.16789437485374 105.16755968422214) rotate(351.6247815819229)"><path class="outline" fill="#569480" stroke="none" d="M 25 1 L 111.33716641518427 1 L 111.33716641518427 -1 L 25 -1 Z M 166.97779141518427 1 L 253.31495783036854 1 L 253.31495783036854 4 L 261.31495783036854 0 L 253.31495783036854 -4 L 253.31495783036854 -1 L 166.97779141518427 -1 Z"/><text text-anchor="middle" pointer-events="none" font-size="8px" fill="#000000" x="139.15747891518427" y="3" font-family="sans-serif">LOCATED_IN</text></g><g class="relationship" transform="translate(200.7528560804769 299.25443541867855) rotate(216.2430280021199)"><path class="outline" fill="#569480" stroke="none" d="M 25 1 L 167.592346551153 1 L 167.592346551153 -1 L 25 -1 Z M 223.232971551153 1 L 365.825318102306 1 L 365.825318102306 4 L 373.825318102306 0 L 365.825318102306 -4 L 365.825318102306 -1 L 223.232971551153 -1 Z"/><text text-anchor="middle" pointer-events="none" font-size="8px" fill="#000000" x="195.412659051153" y="3" transform="rotate(180 195.412659051153 0)" font-family="sans-serif">LOCATED_IN</text></g><g class="relationship" transform="translate(-215.657706636432 276.86900344076764) rotate(222.32831509755692)"><path class="outline" fill="#FFE081" stroke="none" d="M 24.018736134675446,-6.953439040707552 L 24.277555179777966,-5.987513214418485 A 395.7694479090107 395.7694479090107 0 0 1 88.03325841594899,-17.578623441121806 L 87.93553241017281,-18.573836799048138 A 396.7694479090107 396.7694479090107 0 0 0 24.018736134675446,-6.953439040707552 Z M 160.0151159453491,-19.072750323232924 L 159.93117578727362,-18.07627952593765 A 395.7694479090107 395.7694479090107 0 0 1 223.84122302193848,-7.368833803955301 L 223.10495347586735,-4.46058567913373 L 230.74984690420067,-6.135579550592888 L 224.82291575003333,-11.246497970384063 L 224.0866462039622,-8.338249845562492 A 396.7694479090107 396.7694479090107 0 0 0 160.0151159453491,-19.072750323232924"/><text text-anchor="middle" pointer-events="none" font-size="8px" fill="#000000" x="123.96743174463926" y="-16.9635378417924" transform="rotate(180 123.96743174463926 -19.9635378417924)" font-family="sans-serif">CREATED_ISSUE</text></g><g class="relationship" transform="translate(90.1955828849627 66.80836023910045) rotate(209.18912783992374)"><path class="outline" fill="#C990C0" stroke="none" d="M 25 0.5 L 97.5911948704723 0.5 L 97.5911948704723 -0.5 L 25 -0.5 Z M 179.4661948704723 0.5 L 252.0573897409446 0.5 L 252.0573897409446 3.5 L 259.0573897409446 0 L 252.0573897409446 -3.5 L 252.0573897409446 -0.5 L 179.4661948704723 -0.5 Z"/><text text-anchor="middle" pointer-events="none" font-size="8px" fill="#000000" x="138.5286948704723" y="3" transform="rotate(180 138.5286948704723 0)" font-family="sans-serif">SUPPORTS_CAUSE</text></g><g class="relationship" transform="translate(-215.657706636432 276.86900344076764) rotate(279.4252288236287)"><path class="outline" fill="#C990C0" stroke="none" d="M 25 0.5 L 132.24454645000597 0.5 L 132.24454645000597 -0.5 L 25 -0.5 Z M 214.11954645000597 0.5 L 321.36409290001194 0.5 L 321.36409290001194 3.5 L 328.36409290001194 0 L 321.36409290001194 -3.5 L 321.36409290001194 -0.5 L 214.11954645000597 -0.5 Z"/><text text-anchor="middle" pointer-events="none" font-size="8px" fill="#000000" x="173.18204645000597" y="3" font-family="sans-serif">SUPPORTS_CAUSE</text></g><g class="relationship" transform="translate(200.7528560804769 299.25443541867855) rotate(225.976583946802)"><path class="outline" fill="#C990C0" stroke="none" d="M 25 0.5 L 213.5251925827941 0.5 L 213.5251925827941 -0.5 L 25 -0.5 Z M 295.4001925827941 0.5 L 483.9253851655882 0.5 L 483.9253851655882 3.5 L 490.9253851655882 0 L 483.9253851655882 -3.5 L 483.9253851655882 -0.5 L 295.4001925827941 -0.5 Z"/><text text-anchor="middle" pointer-events="none" font-size="8px" fill="#000000" x="254.4626925827941" y="3" transform="rotate(180 254.4626925827941 0)" font-family="sans-serif">SUPPORTS_CAUSE</text></g><g class="relationship" transform="translate(-215.657706636432 276.86900344076764) rotate(222.32831509755692)"><path class="outline" fill="#F79767" stroke="none" d="M 24.018736134675446,6.953439040707552 L 24.277555179777966,5.987513214418485 A 395.7694479090107 395.7694479090107 0 0 0 84.93807447860925,17.262400285539343 L 84.83252779856502,18.25681463495897 A 396.7694479090107 396.7694479090107 0 0 1 24.018736134675446,6.953439040707552 Z M 163.12221169816337,18.79871263416976 L 163.03044055469022,17.80293250922972 A 395.7694479090107 395.7694479090107 0 0 0 223.84122302193848,7.368833803955301 L 223.10495347586735,4.46058567913373 L 230.74984690420067,6.135579550592888 L 224.82291575003333,11.246497970384063 L 224.0866462039622,8.338249845562492 A 396.7694479090107 396.7694479090107 0 0 1 163.12221169816337,18.79871263416976"/><text text-anchor="middle" pointer-events="none" font-size="8px" fill="#000000" x="123.9674317446393" y="22.9635378417924" transform="rotate(180 123.9674317446393 19.9635378417924)" font-family="sans-serif">SUPPORTS_ISSUE</text></g><g class="relationship" transform="translate(-215.657706636432 276.86900344076764) rotate(363.0771490798038)"><path class="outline" fill="#D9C8AE" stroke="none" d="M 24.018736134675446,-6.953439040707552 L 24.277555179777966,-5.987513214418485 A 709.9553080403595 709.9553080403595 0 0 1 176.1639404162662,-29.463257363865864 L 176.11905932404093,-30.462249699952963 A 710.9553080403595 710.9553080403595 0 0 0 24.018736134675446,-6.953439040707552 Z M 233.86201946477536,-30.70911481056885 L 233.82568172441339,-29.70977524434261 A 709.9553080403595 709.9553080403595 0 0 1 385.90724008887395,-7.533567520423881 L 385.1555882820541,-4.629257006497301 L 392.8092399225059,-6.263765056832015 L 386.90944249796706,-11.405981538992652 L 386.1577906911472,-8.501671025066074 A 710.9553080403595 710.9553080403595 0 0 0 233.86201946477536,-30.70911481056885"/><text text-anchor="middle" pointer-events="none" font-size="8px" fill="#000000" x="204.99016967663755" y="-27.672161055105107" font-family="sans-serif">RELATED_TO</text></g><g class="relationship" transform="translate(90.1955828849627 66.80836023910045) rotate(424.5630494872956)"><path class="outline" fill="#D9C8AE" stroke="none" d="M 25 0.5 L 96.33997282548205 0.5 L 96.33997282548205 -0.5 L 25 -0.5 Z M 154.05872282548205 0.5 L 225.3986956509641 0.5 L 225.3986956509641 3.5 L 232.3986956509641 0 L 225.3986956509641 -3.5 L 225.3986956509641 -0.5 L 154.05872282548205 -0.5 Z"/><text text-anchor="middle" pointer-events="none" font-size="8px" fill="#000000" x="125.19934782548205" y="3" font-family="sans-serif">RELATED_TO</text></g><g class="relationship" transform="translate(90.1955828849627 66.80836023910045) rotate(226.87608866360964)"><path class="outline" fill="#D9C8AE" stroke="none" d="M 6.953439040707552 24.018736134675446 L 17.306200844808384 62.65576918623819 A 17.916697508022974 17.916697508022974 0 1 1 -17.306200844808384 62.65576918623819 L -8.765172356425198 30.780216918698923 L -4.901469051268926 31.815493099109005 L -6.4704761275630185 24.148145657226706 L -11.662949835292403 30.00375978339136 L -7.79924653013613 31.039035963801442 L -16.340275018519314 62.91458823134071 A 16.916697508022974 16.916697508022974 0 1 0 16.340275018519314 62.91458823134071 L 5.987513214418485 24.277555179777966 Z"/><text text-anchor="middle" pointer-events="none" font-size="8px" fill="#000000" x="0" y="94.20964923467838" transform="rotate(180 0 91.20964923467838)" font-family="sans-serif">RELATED…</text></g><g class="relationship" transform="translate(-215.657706636432 276.86900344076764) rotate(325.51864352833735)"><path class="outline" fill="#D9C8AE" stroke="none" d="M 25 0.5 L 153.16131692771745 0.5 L 153.16131692771745 -0.5 L 25 -0.5 Z M 210.88006692771745 0.5 L 339.0413838554349 0.5 L 339.0413838554349 3.5 L 346.0413838554349 0 L 339.0413838554349 -3.5 L 339.0413838554349 -0.5 L 210.88006692771745 -0.5 Z"/><text text-anchor="middle" pointer-events="none" font-size="8px" fill="#000000" x="182.02069192771745" y="3" font-family="sans-serif">RELATED_TO</text></g><g class="relationship" transform="translate(358.9727736643785 13.637986948613047) rotate(189.37982700083717)"><path class="outline" fill="#DA7194" stroke="none" d="M 25 0.5 L 228.33633153653517 0.5 L 228.33633153653517 -0.5 L 25 -0.5 Z M 288.43008153653517 0.5 L 491.76641307307034 0.5 L 491.76641307307034 3.5 L 498.76641307307034 0 L 491.76641307307034 -3.5 L 491.76641307307034 -0.5 L 288.43008153653517 -0.5 Z"/><text text-anchor="middle" pointer-events="none" font-size="8px" fill="#000000" x="258.38320653653517" y="3" transform="rotate(180 258.38320653653517 0)" font-family="sans-serif">BELONGS_TO</text></g><g class="relationship" transform="translate(-404.16789437485374 105.16755968422214) rotate(324.3226590415467)"><path class="outline" fill="#DA7194" stroke="none" d="M 25 0.5 L 118.10454684090868 0.5 L 118.10454684090868 -0.5 L 25 -0.5 Z M 178.19829684090868 0.5 L 271.30284368181736 0.5 L 271.30284368181736 3.5 L 278.30284368181736 0 L 271.30284368181736 -3.5 L 271.30284368181736 -0.5 L 178.19829684090868 -0.5 Z"/><text text-anchor="middle" pointer-events="none" font-size="8px" fill="#000000" x="148.15142184090868" y="3" font-family="sans-serif">BELONGS_TO</text></g><g class="relationship" transform="translate(-215.657706636432 276.86900344076764) rotate(363.0771490798038)"><path class="outline" fill="#A5ABB6" stroke="none" d="M 24.018736134675446,6.953439040707552 L 24.277555179777966,5.987513214418485 A 709.9553080403595 709.9553080403595 0 0 0 182.45511335858473,29.71794884684016 L 182.41909363111168,30.717299925907355 A 710.9553080403595 710.9553080403595 0 0 1 24.018736134675446,6.953439040707552 Z M 227.56003469080298,30.910288359144033 L 227.5325610586384,29.91066583061854 A 709.9553080403595 709.9553080403595 0 0 0 385.90724008887395,7.533567520423881 L 385.1555882820541,4.629257006497301 L 392.8092399225059,6.263765056832015 L 386.90944249796706,11.405981538992652 L 386.1577906911472,8.501671025066074 A 710.9553080403595 710.9553080403595 0 0 1 227.56003469080298,30.910288359144033"/><text text-anchor="middle" pointer-events="none" font-size="8px" fill="#000000" x="204.99016967663766" y="33.67216105510511" font-family="sans-serif">FOLLOWS</text></g><g class="relationship" transform="translate(-215.657706636432 276.86900344076764) rotate(335.38807825035497)"><path class="outline" fill="#A5ABB6" stroke="none" d="M 25 0.5 L 289.9678121618451 0.5 L 289.9678121618451 -0.5 L 25 -0.5 Z M 335.0849996618451 0.5 L 600.0528118236901 0.5 L 600.0528118236901 3.5 L 607.0528118236901 0 L 600.0528118236901 -3.5 L 600.0528118236901 -0.5 L 335.0849996618451 -0.5 Z"/><text text-anchor="middle" pointer-events="none" font-size="8px" fill="#000000" x="312.5264059118451" y="3" font-family="sans-serif">FOLLOWS</text></g></g><g class="layer nodes"><g class="node" transform="translate(-120.90636408971989,63.464315950312255)"><circle class="outline" cx="0" cy="0" r="25" fill="#57C7E3" stroke="#23b3d7" stroke-width="2px"/><text text-anchor="middle" pointer-events="none" font-family="sans-serif" dy="1.5625" font-size="25" fill="#FFFFFF"/><text text-anchor="middle" pointer-events="none" y="5" font-size="10px" fill="#FFFFFF" font-family="sans-serif"> </text></g><g class="node" transform="translate(90.1955828849627,66.80836023910045)"><circle class="outline" cx="0" cy="0" r="25" fill="#8DCC93" stroke="#5db665" stroke-width="2px"/><text text-anchor="middle" pointer-events="none" font-family="sans-serif" dy="1.5625" font-size="25" fill="#604A0E"/><text text-anchor="middle" pointer-events="none" y="5" font-size="10px" fill="#604A0E" font-family="sans-serif"> </text></g><g class="node" transform="translate(-157.7906756405948,-71.72472696007463)"><circle class="outline" cx="0" cy="0" r="25" fill="#C990C0" stroke="#b261a5" stroke-width="2px"/><text text-anchor="middle" pointer-events="none" font-family="sans-serif" dy="1.5625" font-size="25" fill="#FFFFFF"/><text text-anchor="middle" pointer-events="none" y="5" font-size="10px" fill="#FFFFFF" font-family="sans-serif"> </text></g><g class="node" transform="translate(200.7528560804769,299.25443541867855)"><circle class="outline" cx="0" cy="0" r="25" fill="#DA7194" stroke="#cc3c6c" stroke-width="2px"/><text text-anchor="middle" pointer-events="none" font-family="sans-serif" dy="1.5625" font-size="25" fill="#FFFFFF"/><text text-anchor="middle" pointer-events="none" y="5" font-size="10px" fill="#FFFFFF" font-family="sans-serif"> </text></g><g class="node" transform="translate(-404.16789437485374,105.16755968422214)"><circle class="outline" cx="0" cy="0" r="25" fill="#A5ABB6" stroke="#9AA1AC" stroke-width="2px"/><text text-anchor="middle" pointer-events="none" font-family="sans-serif" dy="1.5625" font-size="25" fill="#FFFFFF"/><text text-anchor="middle" pointer-events="none" y="5" font-size="10px" fill="#FFFFFF" font-family="sans-serif"> </text></g><g class="node" transform="translate(-215.657706636432,276.86900344076764)"><circle class="outline" cx="0" cy="0" r="25" fill="#4C8EDA" stroke="#2870c2" stroke-width="2px"/><text text-anchor="middle" pointer-events="none" font-family="sans-serif" dy="1.5625" font-size="25" fill="#FFFFFF"/><text text-anchor="middle" pointer-events="none" y="5" font-size="10px" fill="#FFFFFF" font-family="sans-serif"> </text></g><g class="node" transform="translate(358.9727736643785,13.637986948613047)"><circle class="outline" cx="0" cy="0" r="25" fill="#FFC454" stroke="#d7a013" stroke-width="2px"/><text text-anchor="middle" pointer-events="none" font-family="sans-serif" dy="1.5625" font-size="25" fill="#604A0E"/><text text-anchor="middle" pointer-events="none" y="5" font-size="10px" fill="#604A0E" font-family="sans-serif"> </text></g></g></svg>